<svg id="Layer_1" data-name="Layer 1" xmlns="http://www.w3.org/2000/svg" viewBox="0 0 1278.89 543.02"><defs><style>.cls-1{fill:#b8ce01;}.cls-2{fill:#7db425;}.cls-3{fill:#f6a925;}.cls-4{fill:#35ac9d;}.cls-5{fill:#59d6bd;}.cls-6{fill:#ef7414;}.cls-7{fill:#555;}.cls-8{fill:#898989;}.cls-9{fill:#fff;}.cls-10{fill:#e74b50;}.cls-11{fill:#794387;}.cls-12{fill:#e4e4e4;}.cls-13{fill:#f1f1f1;}.cls-14{fill:#4c3683;}.cls-15{fill:#0f68a0;}.cls-16{fill:#49bdca;}.cls-17{fill:#545455;}</style></defs><title>Rubika_New</title><path class="cls-1" d="M1523.57,579.8h1.76c.48,42.73-.25,128.44-.25,128.44-40.86-22.92-82-45.3-122.84-68.29q40.13-22.82,80.32-45.51c12.69-7.16,26.33-13.31,41-14.64Z" transform="translate(-494 -579.79)"/><path class="cls-2" d="M1525.23,579.79h3c15.89,1.43,30.25,9,43.94,16.68q38.24,21.57,76.38,43.34c-41,22.73-82.45,45.82-123.51,68.48-.35-42.73.63-85.77.15-128.5Z" transform="translate(-494 -579.79)"/><path class="cls-3" d="M1402.27,639.9l122.84,68.29-123.69,72.26s-.06-45.85.08-68.71C1401.39,688,1402.27,639.9,1402.27,639.9Z" transform="translate(-494 -579.79)"/><path class="cls-4" d="M1648.69,639.82l.35.19c-.1,42.59,0,85.18,0,127.77-.07,4.17-.11,12.77-.11,12.77l-123.81-72.31s82.58-45.69,123.61-68.42Z" transform="translate(-494 -579.79)"/><path class="cls-5" d="M1648.94,640c27.28,15.51,54.37,31.36,81.47,47.17,13.11,7.36,27,15.52,34.16,29.39-38.38,21.25-115.68,64-115.68,64s-.06-8.61,0-12.78c0-42.59-.06-85.18,0-127.77Z" transform="translate(-494 -579.79)"/><path class="cls-6" d="M1324,684.82c25.65-15,78.19-44.88,78.19-44.88l-.72,140.51s-77-42.45-115.26-63.71c8.34-14.82,23.4-23.83,37.79-31.92Z" transform="translate(-494 -579.79)"/><path class="cls-7" d="M494.2,657.79c14.6,0,29.2,0,43.79,0,3-.05,5.11,3.11,4.71,5.93q-.08,90-.2,180.07c-.16,9.4,1.84,19.19,7.6,26.81,5.35,7.18,13.93,11.24,22.6,12.71,8.32,1.68,16.83,1.08,25.25,1.18,31.82,0,63.65.09,95.47-.07-.23-16.4-10-30.82-21.67-41.59-11.61-11.19-27.09-17.66-42.87-20.16-11.65-2.11-23.53-1.53-35.3-1.88,0-13.65,0-27.31,0-41,.54-17.4,4.82-35.08,14.86-49.52a84.61,84.61,0,0,1,36.1-30.09c29.38-12.63,58.82-25.1,88.22-37.67,5.24,14.67,10.53,29.32,15.75,44q-42.15,17.74-84.26,35.6c-5,2.16-10.31,3.87-14.29,7.72a33,33,0,0,0-10.41,23.81c18.09,3.35,35.68,10.1,50.79,20.67,29.8,20.74,48.14,54.92,54.52,90.16,12.26.23,25.49-2.38,34.66-11.09,9.46-8.82,13.41-22.05,13.71-34.68.23-20.65-.12-41.3.19-62a5.24,5.24,0,0,1,5.51-5.8c14-.14,28-.08,42,0,0,22.27,0,44.54,0,66.81.19,12.19,3.23,25.16,12,34.11,7.92,8.45,19.68,12,31,12.58,6.08.16,12.17,0,18.26.07.05-36.23,0-72.46,0-108.69a4.79,4.79,0,0,1,4.76-4.73c14.09,0,28.18-.08,42.28,0-.08,54.59,0,109.19,0,163.79q-21.66,0-43.3,0c-14.29-.09-28.75.67-42.82-2.33-18.13-3.72-36.17-13.33-46-29.5-7,12-19.2,20-31.82,25.19-11.52,4.6-24,6.22-36.31,6.65q-80.05,0-160.11,0c-19,0-38.73-2.09-55.66-11.42a65.17,65.17,0,0,1-28.28-28.73,98.17,98.17,0,0,1-9.94-33.91c-1.33-11-.83-22-.92-33q.09-85,.18-170.05Z" transform="translate(-494 -579.79)"/><path class="cls-8" d="M941.58,710.62c4.32-5.1,8.77-10.07,13.15-15.12,2.85,0,5.69,0,8.54,0-3.77,4-7.46,8.17-11.3,12.14,6.13-.12,12.61,1.66,16.91,6.25,5,5.22,6.5,12.75,7,19.75,5.48,0,12,.5,16.16-3.82,3.89-4.21,2.9-10.34,3-15.58h6.65c.11,5.06-.76,10.82,2.65,15.08,4.5,5.11,13.22,5.5,18.44,1.28,2.84-2.36,3.76-6.2,3.77-9.75q0-12.66,0-25.32c2.25,0,4.52,0,6.78,0,0,8.74-.08,17.47,0,26.21,0,4.59,2.59,9.36,7.16,10.77,5.75,1.83,11.91.72,17.84,1-.06-6.43,0-12.85,0-19.28h6.53c0,8.72,0,17.45,0,26.17-6.65,0-13.3,0-19.94,0-5.64-.21-11.65-2.2-15-7.05-3.32,4.91-9.41,6.79-15.06,7.07-6.14.06-12.87-1.84-16.54-7.13-3.27,5.09-9.63,6.89-15.36,7.1-15.35,0-30.71,0-46.06,0-5.84-.11-12.2-2-15.67-7-4,5.34-10.93,7.21-17.3,7-5.46-.36-11.43-2.21-14.53-7.06-3.85,5.48-10.89,7.2-17.24,7.13,0-.94.08-2.83.1-3.77-4,2.73-8.82,3.67-13.55,3.79,0-1,.17-2.91.22-3.88-4.9,3.54-11.2,4-17.05,3.83-4.75-.08-9.65-1.13-13.5-4.06-.47,5.75-3.33,11.69-8.76,14.23-8,3.93-19.28,2.66-24.55-5-4.73-7.47-2.63-16.69-3.16-25,2.22,0,4.43,0,6.66,0,.3,5.91-.72,12,.7,17.77,2,7,11.17,9.58,17.08,6,3.45-1.78,5.3-5.68,5.44-9.45.12-6.84.15-13.68.17-20.52h7.07c0,5-.83,10.68,2.44,15,3.16,4,8.7,4.52,13.43,4.38,4.36-.06,9.3-1.22,11.76-5.19,2.66-4.23,1.7-9.42,1.87-14.14h6.57c0,6.47.52,13.41-3.09,19.13,3.2-.79,6.53-2.26,8.21-5.27,2.49-4.19,1.63-9.24,1.77-13.86h6.51c.07,6.46.49,13.41-3.11,19.13,3.12-.77,6.35-2.14,8.08-5,2.59-4.22,1.83-9.39,1.94-14.1h7.26c.13,5.06-.86,10.82,2.59,15.08,4.94,5.58,15,5.54,20-.05,3.44-4.29,2.3-10,2.71-15.11q3.28.06,6.58,0c.16,4.91-.83,10.4,2.23,14.67,2.72,3.81,7.71,4.62,12.08,4.73,10.09,0,20.18,0,30.27,0-.05-7-3.25-14.09-9.29-17.83-5.82-3.14-13.05-1.58-18.37,1.87q.13-3.52.13-7Z" transform="translate(-494 -579.79)"/><path class="cls-8" d="M1067.94,695.52q3.45,0,6.92,0c0,14.93,0,29.86,0,44.8-2.35,0-4.69,0-7,0,0-14.93.19-29.86.12-44.8Z" transform="translate(-494 -579.79)"/><path class="cls-8" d="M807.12,698c2.45-1.14,6.4-1,7.62,1.82,1,2.51.73,6.44-2.2,7.51-2.51.92-6.29.44-7.25-2.45-.66-2.32-.56-5.58,1.83-6.88Z" transform="translate(-494 -579.79)"/><path class="cls-8" d="M862.26,701.14c2.71-1.24,7.26-.83,8,2.67.3,2.19.37,5.11-1.85,6.35-2.51,1.29-6.59,1.1-7.91-1.79-.87-2.4-.75-5.86,1.76-7.23Z" transform="translate(-494 -579.79)"/><path class="cls-8" d="M873.17,701.08a7.6,7.6,0,0,1,6.21.21c3.61,2.87,1.81,10.48-3.5,9.62-5.32.63-6.93-7.53-2.71-9.83Z" transform="translate(-494 -579.79)"/><path class="cls-8" d="M884,701.05c3.47-1.71,8.63.32,8,4.74.72,5.39-7.49,7-9.85,2.77-.83-2.48-.9-6.23,1.86-7.51Z" transform="translate(-494 -579.79)"/><path class="cls-9" d="M1525,708.23l123.81,72.3s-39.84,22.05-59.62,32.64c-21.14,12-64.09,35.82-64.09,35.82l-123.66-68.54Z" transform="translate(-494 -579.79)"/><path class="cls-8" d="M1137.19,713.05c7.55-3.58,16.18-1.88,24.23-2.29,0,7.61-.08,15.21-.14,22.81,7.15-.5,15.25,1.6,21.59-2.65,5.18-3.91,4.16-11,4.22-16.69h6.58c.09,6.48.45,13.41-3.12,19.14,3.35-.8,6.83-2.42,8.43-5.67,2.25-4.13,1.37-9,1.53-13.46q3.27,0,6.56,0c.09,6.47.42,13.39-3.12,19.13,3.2-.77,6.52-2.26,8.21-5.26,2.47-4.19,1.53-9.25,1.71-13.86,2.17,0,4.33,0,6.51,0-.06,6.38.72,13.41-3.11,19-3.54,5.47-10.45,7.13-16.58,7.22.06-1,.16-2.9.22-3.86-4,2.8-8.9,3.68-13.67,3.87l.2-3.89c-8,5.55-18.18,3.49-27.28,3.66-1.64,8-9.76,12.54-17.48,12.65,0-2.27,0-4.53,0-6.8,4.07-.41,8.18-2.16,10.31-5.83-5.65-.06-11.79.45-16.79-2.67-8.45-5.33-8.14-20,1-24.51m2.78,6.86a7.72,7.72,0,0,0,.46,11.45c3.93,3.15,9.27,2.16,13.93,2.33q0-8.27,0-16.52c-4.81.16-10.55-.86-14.4,2.74Z" transform="translate(-494 -579.79)"/><path class="cls-8" d="M1120.3,714.23h6.52q0,13.08,0,26.16-9,0-18,0c-4.95,0-10.12-1-14.17-4-.44,4.15-1.73,8.42-4.79,11.41-3.49,3.49-8.54,4.64-13.29,5.05l0-6.81c5.25-.37,10.62-3.7,11.37-9.27.71-7.48.1-15,.33-22.56l6.94,0c0,5.74-1,13,4.43,16.82,6.11,4,13.81,1.94,20.66,2.47q0-9.64,0-19.3Z" transform="translate(-494 -579.79)"/><path class="cls-10" d="M1277.5,772.82c.11-18.86-.23-38.88,8.66-56.08,38.29,21.26,115.26,63.71,115.26,63.71-41.37,23.92-82.54,48.2-123.89,72.15-.06-26.6,0-53.19,0-79.78Z" transform="translate(-494 -579.79)"/><path class="cls-11" d="M1764.57,716.56c7.54,14.1,8.64,30.5,8.22,46.19,0,29.81,0,90.11,0,90.11l-123.88-72.31S1726.19,737.81,1764.57,716.56Z" transform="translate(-494 -579.79)"/><path class="cls-8" d="M903.28,743.31c2.55-1.7,7.26-1.35,8.35,2,.3,2.29.61,5.4-1.74,6.75-2.68,1.36-7,1-8.1-2.3-.48-2.18-.54-5,1.49-6.42Z" transform="translate(-494 -579.79)"/><path class="cls-8" d="M914.16,743.14c2.78-1.58,7.64-1,8.31,2.68,1.24,3.55-1.59,7.78-5.56,6.9-4.92.29-6.33-7-2.75-9.58Z" transform="translate(-494 -579.79)"/><path class="cls-8" d="M981,742.94c2.18-.92,5.12-.93,6.9.83,2.89,3.18.78,9.73-4.06,9-5.36.82-7.09-7.49-2.84-9.79Z" transform="translate(-494 -579.79)"/><path class="cls-8" d="M991.29,743.23c3.43-2.38,9.47-.11,8.51,4.62.62,5.23-7.38,6.66-9.74,2.67-.57-2.37-1.09-5.68,1.23-7.29Z" transform="translate(-494 -579.79)"/><path class="cls-8" d="M1034.26,743.34c3.38-2.53,9.61-.35,8.76,4.46.54,5.27-7.46,6.73-9.85,2.7-1-2.26-1-5.51,1.09-7.16Z" transform="translate(-494 -579.79)"/><path class="cls-8" d="M1045.22,743.2a7,7,0,0,1,6.4-.19c3.79,2.37,2.46,10.21-2.64,9.71-5.38,1.16-7.51-6.64-3.76-9.52Z" transform="translate(-494 -579.79)"/><path class="cls-8" d="M1056.15,743.07c3.46-2.07,9.1,0,8.36,4.66.56,5.23-7.08,6.73-9.75,3-.91-2.47-1.16-6.08,1.39-7.67Z" transform="translate(-494 -579.79)"/><path class="cls-8" d="M1098.23,743.35c2.91-2.18,8.93-.93,8.58,3.46a4.88,4.88,0,0,1-5.92,5.89c-4.63.06-5.87-6.82-2.66-9.35Z" transform="translate(-494 -579.79)"/><path class="cls-8" d="M1109.25,743.12a7.09,7.09,0,0,1,6.39-.06c3.72,2.41,2.37,10.11-2.68,9.66-5.42,1.19-7.74-6.75-3.71-9.6Z" transform="translate(-494 -579.79)"/><path class="cls-8" d="M1120.18,743c3.48-2,9,.12,8.26,4.7.59,5.24-7.12,6.77-9.71,3-1-2.43-1.16-6.16,1.45-7.66Z" transform="translate(-494 -579.79)"/><path class="cls-7" d="M1010.64,780.42c18.93-8.15,39.87-10,60.27-9.49,19.68,0,39.37,0,59,0a4.86,4.86,0,0,1,5.13,3.9c.26,2.31.11,4.64.14,7-.31,37.3-.56,74.6-.39,111.91a126.23,126.23,0,0,1-1.34,13.15c-2.09,14.09-4.64,28.29-10.11,41.52-6,13.58-14.94,26.07-27,34.82a105.57,105.57,0,0,1-54.46,20c-14.74,0-29.48,0-44.22,0V962.82a5.16,5.16,0,0,1,3.65-5.49c16.79-1.29,34.19,2,50.52-3.36,10.69-3.2,20.58-9.44,27.2-18.54-13.1-.1-26.25.5-39.28-1.19-16.31-2.11-32.78-7-45.73-17.56-13.33-10.56-22-26.3-25.3-42.86-5-21.27-2.49-44.55,8.31-63.69,7.49-13.31,19.65-23.65,33.59-29.71m23.56,39.66c-10.87,5-18.12,16-20.07,27.6-1.59,7.23.74,14.59,3.69,21.16,4.21,9.18,12.73,15.79,22.18,19,16.14,5.71,33.53,3.17,50.28,3.79q0-38.83,0-77.65c-18.71.63-38.68-2.5-56.09,6.14Z" transform="translate(-494 -579.79)"/><path class="cls-7" d="M1169.46,776.86a5.23,5.23,0,0,1,5.4-5.85c14.66,0,29.32,0,44,0,.15,44.92,0,89.85.06,134.78,0,30.9-16,61.08-41,79a98.73,98.73,0,0,1-44.14,17.83q0-23.43,0-46.84a4.69,4.69,0,0,1,3.19-4.89c19.61-7.07,33.36-27.29,32.53-48.15q0-63,0-125.9Z" transform="translate(-494 -579.79)"/><path class="cls-12" d="M1401.42,780.45c.19-.08,123.66,68.54,123.66,68.54s.05,71.69.07,106.76c.2,11.29-.07,34.11-.07,34.11-41.27-22.78-82.32-45.76-123.6-68.54l-.07-.31q0-70.28,0-140.56Z" transform="translate(-494 -579.79)"/><path class="cls-11" d="M1277.53,852.6c41.35-24,82.52-48.23,123.89-72.15q-.06,70.29,0,140.56c-6.35-2.65-12.13-6.43-18.19-9.64C1348,892,1312.88,872.18,1277.52,853v-.37Z" transform="translate(-494 -579.79)"/><path class="cls-13" d="M1648.89,780.55q0,43.1,0,86.18c-.13,18.27.46,36.47,0,54.73-41.21,22.4-123.82,68.4-123.82,68.4s.27-22.82.07-34.11c0-35.07-.07-106.76-.07-106.76Z" transform="translate(-494 -579.79)"/><path class="cls-14" d="M1648.89,780.55s123.88,72.14,123.88,72.31c-41.17,22.82-123.87,68.6-123.87,68.6h0c.46-18.26-.13-36.46,0-54.73q0-43.1,0-86.18Z" transform="translate(-494 -579.79)"/><path class="cls-14" d="M1277.52,853c35.36,19.21,70.43,39,105.7,58.4,6.06,3.21,11.84,7,18.19,9.64l.07.31q-57,33.23-113.94,66.49c-4-6.09-6-13.19-7.51-20.25-2.39-11.77-2.52-23.83-2.52-35.79q0-39.4,0-78.8Z" transform="translate(-494 -579.79)"/><path class="cls-10" d="M1772.77,852.86c.06,27.65,0,55.3,0,82.95.4,17.73-.12,36.62-9.57,52.25-34.2-20-114.33-66.6-114.33-66.6S1731.6,875.68,1772.77,852.86Z" transform="translate(-494 -579.79)"/><path class="cls-15" d="M1287.54,987.81q56.94-33.3,113.94-66.49c-.25,46.83.08,93.67-.16,140.49q-40.35-22.75-80.49-45.86c-12.51-7.4-25.32-15.63-33.29-28.14Z" transform="translate(-494 -579.79)"/><path class="cls-16" d="M1401.48,921.32c41.28,22.78,82.33,45.76,123.6,68.54-41.2,24-123.7,72-123.76,71.95.24-46.82-.09-93.66.16-140.49Z" transform="translate(-494 -579.79)"/><path class="cls-3" d="M1648.7,921.55l.2-.09c.12,46.84-.25,93.69.19,140.53l-.31.15c-32.66-19.51-65.71-38.4-98.52-57.68-8.26-4.7-25.18-14.6-25.18-14.6S1607.49,944,1648.7,921.55Z" transform="translate(-494 -579.79)"/><path class="cls-6" d="M1648.9,921.46h0c3.65,2.49,80.13,46.62,114.33,66.6-4.86,8.3-12.56,14.39-20.32,19.84-12.52,8.42-25.88,15.47-38.9,23.05-18.31,10.35-36.5,20.91-54.92,31-.44-46.84-.07-93.69-.19-140.53Z" transform="translate(-494 -579.79)"/><path class="cls-17" d="M744.44,956.58a81,81,0,0,1,23.47.31c3.47.5,7.1,2.42,8.18,6,2.07,6.06,1.71,12.61,1.73,18.93-.28,5-.15,10.54-3,14.92-3.1,3.79-8.5,3.82-13,4.35-7.3.1-14.82.63-21.9-1.5-3.43-1-5.53-4.28-6.12-7.64-1.28-6.28-1.22-12.74-1-19.11.37-3.93.5-8.11,2.48-11.63,1.83-3.21,5.74-4.11,9.11-4.62Z" transform="translate(-494 -579.79)"/><path class="cls-17" d="M797.4,956.61a85.31,85.31,0,0,1,21.48-.09c2.88.46,6,.94,8.25,3,2,1.87,2.63,4.71,3.16,7.3a89.14,89.14,0,0,1,.08,23c-.5,3.75-2,8-5.85,9.45-6.9,2.4-14.36,1.83-21.54,1.8-4.43-.42-9.44-.42-13.07-3.36-3.09-3.1-3.39-7.77-3.76-11.88-.39-7.53-.68-15.29,1.37-22.61,1.19-4.37,5.78-6.24,9.88-6.66Z" transform="translate(-494 -579.79)"/><path class="cls-17" d="M912.38,956.51c8.12-.87,16.49-1,24.51.75a9.14,9.14,0,0,1,7.16,7.38c1.6,7.24,1.37,14.76.92,22.13-.45,4.47-1.08,10.13-5.68,12.3-4.21,1.8-8.92,2-13.44,2.11-6.48,0-13.25.39-19.42-2-4.77-2-5.54-7.75-6-12.29-.46-8-.91-16.31,1.46-24.07,1.41-4.43,6.3-5.93,10.46-6.34Z" transform="translate(-494 -579.79)"/><path class="cls-2" d="M1525.08,989.86v132.93c-10.25-1.51-21.42-3.87-30.5-9.08-31.11-17.26-62.27-34.42-93.26-51.9C1442.52,1037.76,1483.88,1013.91,1525.08,989.86Z" transform="translate(-494 -579.79)"/><path class="cls-1" d="M1525.08,989.86s16.92,9.9,25.18,14.6c32.81,19.28,65.86,38.17,98.52,57.68q-47.79,26.44-95.57,53a62.48,62.48,0,0,1-25.87,7.69c-.56,0-2.26,0-2.26,0Z" transform="translate(-494 -579.79)"/><path class="cls-13" d="M1880.33,813.45" transform="translate(-494 -579.79)"/></svg>